<svg xmlns="http://www.w3.org/2000/svg" width="16.647" height="13.896" viewBox="0 0 16.647 13.896">
  <g id="_25_Info" data-name="25 Info" transform="translate(0 -42.305)">
    <path id="Path_121" data-name="Path 121" d="M5.879,53.951a.81.81,0,0,1-.572-.235L.241,48.706a.813.813,0,0,1,0-1.156l5.067-5.01A.813.813,0,1,1,6.451,43.7L1.968,48.128,6.451,52.56a.813.813,0,0,1-.572,1.391Z" fill="#303030"/>
    <path id="Path_122" data-name="Path 122" d="M19.915,205.286H18.7a.813.813,0,0,1,0-1.626h1.218a2.817,2.817,0,1,0,0-5.635H8.813a.813.813,0,0,1,0-1.626h11.1a4.443,4.443,0,1,1,0,8.886Z" transform="translate(-7.74 -149.085)" fill="#303030"/>
  </g>
</svg>
