<svg xmlns="http://www.w3.org/2000/svg" width="16.185" height="20.181" viewBox="0 0 16.185 20.181">
  <path id="bell" d="M18.162,13.309V10.092A6.069,6.069,0,0,0,13.1,4.114v-1.1a1.012,1.012,0,1,0-2.023,0v1.1a6.069,6.069,0,0,0-5.058,5.978v3.217A3.035,3.035,0,0,0,4,16.162v2.023A1.012,1.012,0,0,0,5.012,19.2H8.188A4.046,4.046,0,0,0,16,19.2h3.176a1.012,1.012,0,0,0,1.012-1.012V16.162a3.035,3.035,0,0,0-2.023-2.853ZM8.046,10.092a4.046,4.046,0,1,1,8.092,0v3.035H8.046Zm4.046,10.115a2.023,2.023,0,0,1-1.74-1.012h3.48A2.023,2.023,0,0,1,12.092,20.208Zm6.069-3.035H6.023V16.162A1.012,1.012,0,0,1,7.035,15.15H17.15a1.012,1.012,0,0,1,1.012,1.012Z" transform="translate(-4 -2)" fill="#515252"/>
</svg>
