<svg xmlns="http://www.w3.org/2000/svg" width="21.001" height="21" viewBox="0 0 21.001 21">
  <path id="chat" d="M21.531,20.04A7.346,7.346,0,0,0,18.655,8.948a8.4,8.4,0,1,0-14.892,6.6L2.3,17a1.056,1.056,0,0,0,.745,1.795H9.021a7.346,7.346,0,0,0,6.622,4.2h6.3a1.056,1.056,0,0,0,.745-1.795ZM8.3,15.643a6.958,6.958,0,0,0,.084,1.049h-2.8l.367-.357a1.049,1.049,0,0,0,0-1.49A6.223,6.223,0,0,1,4.1,10.4a6.3,6.3,0,0,1,6.3-6.3,6.234,6.234,0,0,1,5.929,4.2h-.682A7.346,7.346,0,0,0,8.3,15.643ZM19.358,20.89l.052.052H15.643a5.247,5.247,0,1,1,3.715-1.532,1.027,1.027,0,0,0,0,1.48Z" transform="translate(-1.988 -1.99)"/>
</svg>
