<svg xmlns="http://www.w3.org/2000/svg" width="15.851" height="15.851" viewBox="0 0 15.851 15.851">
  <path id="comment-alt-message" d="M13.888,5.963H5.963a.793.793,0,0,0,0,1.585h7.926a.793.793,0,1,0,0-1.585Zm0,3.17H5.963a.793.793,0,0,0,0,1.585h7.926a.793.793,0,0,0,0-1.585ZM15.473,2H4.378A2.378,2.378,0,0,0,2,4.378V12.3a2.378,2.378,0,0,0,2.378,2.378h9.186l2.932,2.94a.793.793,0,0,0,.563.23.666.666,0,0,0,.3-.063.793.793,0,0,0,.491-.729V4.378A2.378,2.378,0,0,0,15.473,2Zm.793,13.148-1.815-1.823a.793.793,0,0,0-.563-.23H4.378a.793.793,0,0,1-.793-.793V4.378a.793.793,0,0,1,.793-.793h11.1a.793.793,0,0,1,.793.793Z" transform="translate(-2 -2)" fill="#515252"/>
</svg>
