<svg id="local-car-wash" xmlns="http://www.w3.org/2000/svg" width="28.189" height="28.189" viewBox="0 0 28.189 28.189">
  <path id="Path_830" data-name="Path 830" d="M0,0H28.189V28.189H0Z" fill="none"/>
  <path id="Path_831" data-name="Path 831" d="M19.444,5.733a1.759,1.759,0,0,0,1.762-1.762C21.205,2.8,19.444.8,19.444.8s-1.762,2-1.762,3.171A1.759,1.759,0,0,0,19.444,5.733Zm-5.873,0a1.759,1.759,0,0,0,1.762-1.762C15.333,2.8,13.571.8,13.571.8s-1.762,2-1.762,3.171A1.759,1.759,0,0,0,13.571,5.733Zm-5.873,0A1.759,1.759,0,0,0,9.46,3.971C9.46,2.8,7.7.8,7.7.8s-1.762,2-1.762,3.171A1.759,1.759,0,0,0,7.7,5.733Zm14,3.535a1.755,1.755,0,0,0-1.668-1.186H7.111A1.766,1.766,0,0,0,5.443,9.268L3,16.3v9.4a1.178,1.178,0,0,0,1.175,1.175H5.349A1.178,1.178,0,0,0,6.524,25.7V24.526H20.618V25.7a1.178,1.178,0,0,0,1.175,1.175h1.175A1.178,1.178,0,0,0,24.142,25.7V16.3ZM7.522,10.431H19.608l1.222,3.524H6.3ZM21.793,22.177H5.349V16.7l.141-.4H21.663l.129.4Z" transform="translate(0.524 0.14)"/>
  <circle id="Ellipse_211" data-name="Ellipse 211" cx="2" cy="2" r="2" transform="translate(6.628 17.628)"/>
  <circle id="Ellipse_212" data-name="Ellipse 212" cx="2" cy="2" r="2" transform="translate(17.628 17.628)"/>
</svg>
