<svg xmlns="http://www.w3.org/2000/svg" width="23.205" height="22.425" viewBox="0 0 23.205 22.425">
  <path id="mobility-aid" d="M20.289,3.923v-2a.842.842,0,0,0-.841-.841H3.756a.842.842,0,0,0-.841.841v2C1.186,4.136,0,5,0,6.145,0,7.461,1.581,8.418,3.756,8.418s3.756-.957,3.756-2.273C7.512,5,6.327,4.136,4.6,3.923V2.762H9.445V18.451H6.3a.842.842,0,0,0-.841.841V21.83a.842.842,0,0,0,.841.841H7.563a1.659,1.659,0,0,0,2.879,0h2.324a1.659,1.659,0,0,0,2.879,0h1.262a.842.842,0,0,0,.841-.841V19.292a.842.842,0,0,0-.841-.841H13.763V2.759h4.848v1.16C16.881,4.133,15.7,5,15.7,6.141c0,1.316,1.581,2.273,3.756,2.273S23.2,7.461,23.2,6.145C23.2,5,22.019,4.136,20.289,3.923ZM5.812,6.145a2.936,2.936,0,0,1-2.059.591,2.963,2.963,0,0,1-2.059-.591,2.936,2.936,0,0,1,2.059-.591A2.917,2.917,0,0,1,5.812,6.145ZM16.066,20.989h-.99c-.011,0-.022,0-.033,0s-.025,0-.036,0H9.873c-.011,0-.022,0-.033,0s-.025,0-.036,0H7.143v-.859h8.923v.859Zm-3.985-2.542h-.954V2.759h.954ZM19.448,6.736a2.963,2.963,0,0,1-2.059-.591,2.936,2.936,0,0,1,2.059-.591,2.963,2.963,0,0,1,2.059.591A2.936,2.936,0,0,1,19.448,6.736Z" transform="translate(0 -1.08)"/>
</svg>
