<svg id="paw-print" xmlns="http://www.w3.org/2000/svg" width="26" height="26" viewBox="0 0 26 26">
  <rect id="Rectangle_174" data-name="Rectangle 174" width="26" height="26" fill="none"/>
  <path id="Path_832" data-name="Path 832" d="M52.667,92a4.982,4.982,0,0,1,4.76,3.574,3.238,3.238,0,0,0,1.546,1.938,4.545,4.545,0,0,1-3.948,8.175,6.251,6.251,0,0,0-4.729.005,4.5,4.5,0,0,1-1.756.354,4.545,4.545,0,0,1-2.167-8.541,3.23,3.23,0,0,0,1.535-1.932A4.982,4.982,0,0,1,52.667,92ZM56.8,103.569a2.067,2.067,0,0,0,.985-3.884,5.709,5.709,0,0,1-2.734-3.419,2.479,2.479,0,0,0-4.76,0,5.7,5.7,0,0,1-2.723,3.413,2.066,2.066,0,0,0,1.779,3.726,8.729,8.729,0,0,1,6.636-.005A2.072,2.072,0,0,0,56.8,103.569Z" transform="translate(-39.447 -82.499)"/>
  <circle id="Ellipse_213" data-name="Ellipse 213" cx="2.5" cy="2.5" r="2.5" transform="translate(19 9)"/>
  <circle id="Ellipse_214" data-name="Ellipse 214" cx="2.5" cy="2.5" r="2.5" transform="translate(2 9)"/>
  <circle id="Ellipse_215" data-name="Ellipse 215" cx="2.5" cy="2.5" r="2.5" transform="translate(7 4)"/>
  <circle id="Ellipse_216" data-name="Ellipse 216" cx="2.5" cy="2.5" r="2.5" transform="translate(14 4)"/>
</svg>
