<svg xmlns="http://www.w3.org/2000/svg" width="21.831" height="24.257" viewBox="0 0 21.831 24.257">
  <path id="pointer" d="M15.128,26.257a1.213,1.213,0,0,1-1.213-1.213V21.405H9.064a1.213,1.213,0,0,1-1.213-1.213V15.341a1.213,1.213,0,0,1,1.213-1.213h4.851V11.7H8.525a1.213,1.213,0,0,1-.595-.156L3.618,9.121a1.213,1.213,0,0,1,0-2.114L7.931,4.581a1.213,1.213,0,0,1,.595-.156h5.39V3.213a1.213,1.213,0,0,1,2.426,0V4.426h7.277a1.213,1.213,0,0,1,1.213,1.213V10.49A1.213,1.213,0,0,1,23.618,11.7H16.341v2.426h2.426a1.213,1.213,0,0,1,.858.355l2.426,2.426a1.213,1.213,0,0,1,0,1.715L19.625,21.05a1.213,1.213,0,0,1-.858.355H16.341v3.639A1.213,1.213,0,0,1,15.128,26.257ZM10.277,18.98h7.988l1.213-1.213-1.213-1.213H10.277Zm4.851-9.7h7.277V6.851H8.843L6.687,8.064,8.843,9.277Z" transform="translate(-3 -2)"/>
</svg>
