<svg xmlns="http://www.w3.org/2000/svg" width="20" height="20" viewBox="0 0 20 20">
  <path id="steering" d="M98.9,5130a5.005,5.005,0,0,0,0-2h3.031a7.244,7.244,0,0,1,0,2Zm-1.9,6.41v-3.434a1.949,1.949,0,0,0,.977-.977h3.434A8.042,8.042,0,0,1,97,5136.41ZM94,5132c-3.965,0-3.965-6,0-6S97.964,5132,94,5132Zm-1,5h2v-3H93Zm-2-.589A8.043,8.043,0,0,1,86.589,5132h3.433c.28.37.978.7.978.977v3.434ZM86.069,5128H89.1a4.989,4.989,0,0,0,0,2H86.069a7.242,7.242,0,0,1,0-2ZM94,5121a8.009,8.009,0,0,1,7.411,5H97.977a4.955,4.955,0,0,0-7.955,0H86.589A8.008,8.008,0,0,1,94,5121Zm0-2a10,10,0,1,0,10,10A10,10,0,0,0,94,5119Z" transform="translate(-84 -5119)"/>
</svg>
