<svg id="Tow_Truck" data-name="Tow Truck" xmlns="http://www.w3.org/2000/svg" width="27.305" height="19" viewBox="0 0 27.305 19">
  <path id="Path_829" data-name="Path 829" d="M1.594,22.242V19.274a.594.594,0,0,1,.594-.594H14.652V17.2L7.529,12.116v1.816a.594.594,0,0,1-.594.594.6.6,0,0,0-.148,1.187.594.594,0,0,0,.445-.059.593.593,0,1,1,.594,1.027,1.782,1.782,0,0,1-1.484-3.241V11.451A1.781,1.781,0,1,1,8.4,8.762h0c9.094,5.348,8.743,5.17,8.8,5.17a2.374,2.374,0,0,1,1.009.315V10.964a.594.594,0,0,1,.594-.594h4.113a1.781,1.781,0,0,1,1.484.8l3.009,4.511a1.781,1.781,0,0,1,.3.991v5.574a.594.594,0,0,1,.594.594V25.21a.594.594,0,0,1-.594.594H25.337a2.968,2.968,0,0,1-4.749,0H9.31a2.968,2.968,0,0,1-4.749,0H1.594A.594.594,0,0,1,1,25.21V22.836A.594.594,0,0,1,1.594,22.242Zm1.187,0H4.561a2.968,2.968,0,0,1,4.749,0h8.9V19.868H2.781ZM8.123,11.089l6.589,4.7a2.374,2.374,0,0,1,.914-1.4L8.639,10.282A1.656,1.656,0,0,1,8.123,11.089ZM6.936,9.183a.594.594,0,1,0,.594.594A.594.594,0,0,0,6.936,9.183Zm10.091,5.936a1.187,1.187,0,0,0-1.187,1.187v2.374h2.374V16.306A1.187,1.187,0,0,0,17.027,15.119Zm9.5,1.549c0-.261.137,0-3.11-4.844a.594.594,0,0,0-.493-.267H19.4V22.242h1.187a2.968,2.968,0,0,1,4.749,0h1.187Zm.594,7.948V23.429H25.871a2.968,2.968,0,0,1,0,1.187Zm-2.481,0a1.7,1.7,0,0,0,0-1.187,1.781,1.781,0,0,0-3.348,0,1.7,1.7,0,0,0,0,1.187,1.781,1.781,0,0,0,3.348,0Zm-4.582,0a2.968,2.968,0,0,1,0-1.187H9.844a2.968,2.968,0,0,1,0,1.187Zm-11.444,0a1.7,1.7,0,0,0,0-1.187,1.781,1.781,0,0,0-3.348,0,1.7,1.7,0,0,0,0,1.187,1.781,1.781,0,0,0,3.348,0Zm-6.423,0h1.84a2.968,2.968,0,0,1,0-1.187H2.187Z" transform="translate(-1 -7.991)" fill="#191919"/>
</svg>
