<svg xmlns="http://www.w3.org/2000/svg" width="28.994" height="28.994" viewBox="0 0 28.994 28.994">
  <path id="wheel" d="M19.5,17.242A2.255,2.255,0,1,0,21.752,19.5,2.241,2.241,0,0,0,19.5,17.242Zm0,3.222a.969.969,0,0,1-.966-.966.966.966,0,1,1,1.933,0A.969.969,0,0,1,19.5,20.464ZM19.5,5a14.5,14.5,0,1,0,14.5,14.5A14.519,14.519,0,0,0,19.5,5Zm0,27.706A13.208,13.208,0,1,1,32.706,19.5,13.227,13.227,0,0,1,19.5,32.706Zm0-24.484A11.276,11.276,0,1,0,30.773,19.5,11.288,11.288,0,0,0,19.5,8.222Zm9.729,9.053H23.621l-.129-.226,2.8-4.865A9.911,9.911,0,0,1,29.226,17.274ZM19.5,9.51a10,10,0,0,1,2.964.451l-2.8,4.865h-.29l-2.8-4.865A9.632,9.632,0,0,1,19.5,9.51Zm-6.8,2.674,2.8,4.865-.129.226H9.768A9.911,9.911,0,0,1,12.7,12.184ZM9.768,21.72h5.606l.129.226L12.7,26.81A9.911,9.911,0,0,1,9.768,21.72ZM19.5,29.484a10,10,0,0,1-2.964-.451l2.8-4.865h.29l2.8,4.865A9.632,9.632,0,0,1,19.5,29.484Zm6.8-2.674-2.8-4.865.129-.226h5.606A9.911,9.911,0,0,1,26.295,26.81Zm3.157-6.379H23.234a.624.624,0,0,0-.548.322l-.515.87a.585.585,0,0,0,0,.644l3.093,5.348a3.192,3.192,0,0,1-.548.354l-.548.322a2.856,2.856,0,0,1-.548.258L20.528,23.2a.624.624,0,0,0-.548-.322H18.949a.624.624,0,0,0-.548.322L15.309,28.55c-.193-.1-.354-.161-.548-.258l-.548-.322c-.193-.129-.354-.226-.548-.354l3.093-5.348a.585.585,0,0,0,0-.644l-.515-.87a.664.664,0,0,0-.548-.322H9.542c0-.193-.032-.419-.032-.612v-.644c0-.193.032-.419.032-.612h6.185a.624.624,0,0,0,.548-.322l.515-.87a.585.585,0,0,0,0-.644L13.7,11.346a3.192,3.192,0,0,1,.548-.354l.515-.29a2.856,2.856,0,0,1,.548-.258l3.093,5.38a.624.624,0,0,0,.548.322H19.98a.624.624,0,0,0,.548-.322l3.093-5.38c.193.1.354.161.548.258l.515.29c.193.129.354.226.548.354l-3.093,5.38a.585.585,0,0,0,0,.644l.515.87a.664.664,0,0,0,.548.322h6.185a3.9,3.9,0,0,1,.032.612v.644A1.906,1.906,0,0,1,29.452,20.431Z" transform="translate(-5 -5)"/>
</svg>
